<?xml version="1.0" encoding="utf-8"?>
<svg viewBox="126.716 110.347 255.324 255.324" width="255.324px" height="255.324px" xmlns="http://www.w3.org/2000/svg" xmlns:xlink="http://www.w3.org/1999/xlink"><linearGradient id="b" x1="98.031%" x2="58.888%" y1=".161%" y2="40.766%" xlink:href="#a"/><linearGradient id="a"><stop offset="0.18" stop-color="#0052cc"/><stop offset="1" stop-color="#2684ff"/></linearGradient><linearGradient id="c" x1="100.665%" x2="55.402%" y1=".455%" y2="44.727%" xlink:href="#a"/><g id="object-4" transform="matrix(1, 0, 0, 1, 7.105427357601002e-15, 0)"><path d="M 371.374 110.347 L 248.423 110.347 C 248.423 141 273.272 165.849 303.925 165.849 L 326.574 165.849 L 326.574 187.717 C 326.594 218.342 351.415 243.164 382.04 243.184 L 382.04 121.013 C 382.04 115.124 377.266 110.347 371.374 110.347 Z" fill="#2684ff" id="object-0"/><path d="M 310.538 171.609 L 187.588 171.609 C 187.607 202.234 212.428 227.056 243.054 227.076 L 265.703 227.076 L 265.703 249.014 C 265.742 279.639 290.58 304.444 321.205 304.444 L 321.205 182.277 C 321.205 176.386 316.429 171.61 310.538 171.61 L 310.538 171.609 Z" fill="url(#b)" id="object-1"/><path d="M 249.667 232.836 L 126.716 232.836 C 126.716 263.489 151.566 288.338 182.218 288.338 L 204.938 288.338 L 204.938 310.205 C 204.958 340.802 229.736 365.613 260.334 365.671 L 260.334 243.503 C 260.334 237.612 255.558 232.836 249.667 232.836 Z" fill="url(#c)" id="object-2"/><g transform="matrix(0.3125, 0, 0, 0.3125, 233.885971, 204.644073)" id="object-3"><path class="st0" d="M247.355,106.9C222.705,82.241,205.833,39.18,197.46,0c-8.386,39.188-25.24,82.258-49.899,106.917&#10;&#9;&#9;c-24.65,24.642-67.724,41.514-106.896,49.904c39.188,8.373,82.254,25.235,106.904,49.895c24.65,24.65,41.522,67.72,49.908,106.9&#10;&#9;&#9;c8.373-39.188,25.24-82.258,49.886-106.917c24.65-24.65,67.724-41.514,106.896-49.904&#10;&#9;&#9;C315.08,148.422,272.014,131.551,247.355,106.9z" style="fill: rgb(255, 196, 0); stroke-width: 0px;"/><path class="st0" d="M407.471,304.339c-14.714-14.721-24.81-40.46-29.812-63.864c-5.011,23.404-15.073,49.142-29.803,63.872&#10;&#9;&#9;c-14.73,14.714-40.464,24.801-63.864,29.812c23.408,5.01,49.134,15.081,63.864,29.811c14.73,14.722,24.81,40.46,29.82,63.864&#10;&#9;&#9;c5.001-23.413,15.081-49.142,29.802-63.872c14.722-14.722,40.46-24.802,63.856-29.82&#10;&#9;&#9;C447.939,329.14,422.201,319.061,407.471,304.339z" style="fill: rgb(255, 196, 0); stroke-width: 0px;"/><path class="st0" d="M146.352,354.702c-4.207,19.648-12.655,41.263-25.019,53.626c-12.362,12.354-33.968,20.82-53.613,25.027&#10;&#9;&#9;c19.645,4.216,41.251,12.656,53.613,25.027c12.364,12.362,20.829,33.96,25.036,53.618c4.203-19.658,12.655-41.255,25.023-53.626&#10;&#9;&#9;c12.354-12.362,33.964-20.82,53.605-25.035c-19.64-4.2-41.251-12.656-53.613-25.019&#10;&#9;&#9;C159.024,395.966,150.555,374.351,146.352,354.702z" style="fill: rgb(255, 196, 0); stroke-width: 0px;"/></g></g></svg>